#Comment line ignore any data following # character 
#Hierarchical Translation and Rotation (.htr) file 
[Header]	
#Header keywords are followed by a single value 
FileType HTR		#Single word string
DataType HTRS		#Translation followed by rotation and scale data
FileVersion 1		#integer
NumSegments 64		#integer
NumFrames 3		#integer
DataFrameRate 30		#integer, data frame rate in this file
EulerRotationOrder ZYX
CalibrationUnits mm
RotationUnits Degrees
GlobalAxisofGravity Y
BoneLengthAxis Y
ScaleFactor 1.00
[SegmentNames&Hierarchy]
#CHILD	PARENT
Pinger_Root GLOBAL
Pelvis Pinger_Root
L_Hip Pelvis
R_Hip Pelvis
Rear_Leg01 Pelvis
Spine1 Pelvis
L_Leg01 L_Hip
L_Leg02 L_Leg01
L_Leg03 L_Leg02
L_Foot L_Leg03
L_Toe1_01 L_Foot
L_Toe2_01 L_Foot
L_Toe3_01 L_Foot
planeAlignerLeft L_Foot
L_Toe1_02 L_Toe1_01
L_Toe1_03 L_Toe1_02
L_Toe2_02 L_Toe2_01
L_Toe2_03 L_Toe2_02
L_Toe3_02 L_Toe3_01
L_Toe3_03 L_Toe3_02
planeLockWeightLeft planeAlignerLeft
R_Leg01 R_Hip
R_Leg02 R_Leg01
R_Leg03 R_Leg02
R_Foot R_Leg03
planeAlignerRight R_Foot
R_Toe1_01 R_Foot
R_Toe2_01 R_Foot
R_Toe3_01 R_Foot
planeLockWeightRight planeAlignerRight
R_Toe1_02 R_Toe1_01
R_Toe1_03 R_Toe1_02
R_Toe2_02 R_Toe2_01
R_Toe2_03 R_Toe2_02
R_Toe3_02 R_Toe3_01
R_Toe3_03 R_Toe3_02
Rear_Leg02 Rear_Leg01
Rear_Leg03 Rear_Leg02
Rear_Leg04 Rear_Leg03
Rear_Foot Rear_Leg04
planeAlignerCenter Rear_Foot
Rear_Toe1_01 Rear_Foot
Rear_Toe2_01 Rear_Foot
Rear_Toe3_01 Rear_Foot
planeLockWeightCenter planeAlignerCenter
Rear_Toe1_02 Rear_Toe1_01
Rear_Toe1_03 Rear_Toe1_02
Rear_Toe2_02 Rear_Toe2_01
Rear_Toe2_03 Rear_Toe2_02
Rear_Toe3_02 Rear_Toe3_01
Rear_Toe3_03 Rear_Toe3_02
Back_Bone Spine1
Head Spine1
Motor_Bone Back_Bone
Ping_Mechanism Back_Bone
BN_LookIK Head
bottomMouth Head
L_Mouth01 Head
L_mouthFront Head
mouthGun Head
R_Mouth01 Head
R_mouthFront Head
TopMouth Head
weapon_bone Head
[BasePosition]
#SegmentName Tx, Ty, Tz, Rx, Ry, Rz, BoneLength
Pinger_Root 0.000000 0.000000 0.000000 -90.000000 0.000000 0.000000 10.000000 
Pelvis 0.000000 0.000000 0.000000 0.000000 0.000000 0.000000 10.000000 
L_Hip 0.000000 0.000000 0.000000 0.000000 0.000000 0.000000 10.000000 
R_Hip 0.000000 0.000000 0.000000 0.000000 0.000000 0.000000 10.000000 
Rear_Leg01 0.000000 0.000000 0.000000 0.000000 0.000000 0.000000 10.000000 
Spine1 0.000000 0.000000 0.000000 0.000000 0.000000 0.000000 10.000000 
L_Leg01 0.000000 0.000000 0.000000 0.000000 0.000000 0.000000 10.000000 
L_Leg02 0.000000 0.000000 0.000000 0.000000 0.000000 0.000000 10.000000 
L_Leg03 0.000000 0.000000 0.000000 0.000000 0.000000 0.000000 10.000000 
L_Foot 0.000000 0.000000 0.000000 0.000000 0.000000 0.000000 10.000000 
L_Toe1_01 0.000000 0.000000 0.000000 0.000000 0.000000 0.000000 10.000000 
L_Toe2_01 0.000000 0.000000 0.000000 0.000000 0.000000 0.000000 10.000000 
L_Toe3_01 0.000000 0.000000 0.000000 0.000000 0.000000 0.000000 10.000000 
planeAlignerLeft 0.000000 0.000000 0.000000 0.000000 0.000000 0.000000 10.000000 
L_Toe1_02 0.000000 0.000000 0.000000 0.000000 0.000000 0.000000 10.000000 
L_Toe1_03 0.000000 0.000000 0.000000 0.000000 0.000000 0.000000 10.000000 
L_Toe2_02 0.000000 0.000000 0.000000 0.000000 0.000000 0.000000 10.000000 
L_Toe2_03 0.000000 0.000000 0.000000 0.000000 0.000000 0.000000 10.000000 
L_Toe3_02 0.000000 0.000000 0.000000 0.000000 0.000000 0.000000 10.000000 
L_Toe3_03 0.000000 0.000000 0.000000 0.000000 0.000000 0.000000 10.000000 
planeLockWeightLeft 0.000000 0.000000 0.000000 0.000000 0.000000 0.000000 10.000000 
R_Leg01 0.000000 0.000000 0.000000 0.000000 0.000000 0.000000 10.000000 
R_Leg02 0.000000 0.000000 0.000000 0.000000 0.000000 0.000000 10.000000 
R_Leg03 0.000000 0.000000 0.000000 0.000000 0.000000 0.000000 10.000000 
R_Foot 0.000000 0.000000 0.000000 0.000000 0.000000 0.000000 10.000000 
planeAlignerRight 0.000000 0.000000 0.000000 0.000000 0.000000 0.000000 10.000000 
R_Toe1_01 0.000000 0.000000 0.000000 0.000000 0.000000 0.000000 10.000000 
R_Toe2_01 0.000000 0.000000 0.000000 0.000000 0.000000 0.000000 10.000000 
R_Toe3_01 0.000000 0.000000 0.000000 0.000000 0.000000 0.000000 10.000000 
planeLockWeightRight 0.000000 0.000000 0.000000 0.000000 0.000000 0.000000 10.000000 
R_Toe1_02 0.000000 0.000000 0.000000 0.000000 0.000000 0.000000 10.000000 
R_Toe1_03 0.000000 0.000000 0.000000 0.000000 0.000000 0.000000 10.000000 
R_Toe2_02 0.000000 0.000000 0.000000 0.000000 0.000000 0.000000 10.000000 
R_Toe2_03 0.000000 0.000000 0.000000 0.000000 0.000000 0.000000 10.000000 
R_Toe3_02 0.000000 0.000000 0.000000 0.000000 0.000000 0.000000 10.000000 
R_Toe3_03 0.000000 0.000000 0.000000 0.000000 0.000000 0.000000 10.000000 
Rear_Leg02 0.000000 0.000000 0.000000 0.000000 0.000000 0.000000 10.000000 
Rear_Leg03 0.000000 0.000000 0.000000 0.000000 0.000000 0.000000 10.000000 
Rear_Leg04 0.000000 0.000000 0.000000 0.000000 0.000000 0.000000 10.000000 
Rear_Foot 0.000000 0.000000 0.000000 0.000000 0.000000 0.000000 10.000000 
planeAlignerCenter 0.000000 0.000000 0.000000 0.000000 0.000000 0.000000 10.000000 
Rear_Toe1_01 0.000000 0.000000 0.000000 0.000000 0.000000 0.000000 10.000000 
Rear_Toe2_01 0.000000 0.000000 0.000000 0.000000 0.000000 0.000000 10.000000 
Rear_Toe3_01 0.000000 0.000000 0.000000 0.000000 0.000000 0.000000 10.000000 
planeLockWeightCenter 0.000000 0.000000 0.000000 0.000000 0.000000 0.000000 10.000000 
Rear_Toe1_02 0.000000 0.000000 0.000000 0.000000 0.000000 0.000000 10.000000 
Rear_Toe1_03 0.000000 0.000000 0.000000 0.000000 0.000000 0.000000 10.000000 
Rear_Toe2_02 0.000000 0.000000 0.000000 0.000000 0.000000 0.000000 10.000000 
Rear_Toe2_03 0.000000 0.000000 0.000000 0.000000 0.000000 0.000000 10.000000 
Rear_Toe3_02 0.000000 0.000000 0.000000 0.000000 0.000000 0.000000 10.000000 
Rear_Toe3_03 0.000000 0.000000 0.000000 0.000000 0.000000 0.000000 10.000000 
Back_Bone 0.000000 0.000000 0.000000 0.000000 0.000000 0.000000 10.000000 
Head 0.000000 0.000000 0.000000 0.000000 0.000000 0.000000 10.000000 
Motor_Bone 0.000000 0.000000 0.000000 0.000000 0.000000 0.000000 10.000000 
Ping_Mechanism 0.000000 0.000000 0.000000 0.000000 0.000000 0.000000 10.000000 
BN_LookIK 0.000000 0.000000 0.000000 0.000000 0.000000 0.000000 10.000000 
bottomMouth 0.000000 0.000000 0.000000 0.000000 0.000000 0.000000 10.000000 
L_Mouth01 0.000000 0.000000 0.000000 0.000000 0.000000 0.000000 10.000000 
L_mouthFront 0.000000 0.000000 0.000000 0.000000 0.000000 0.000000 10.000000 
mouthGun 0.000000 0.000000 0.000000 0.000000 0.000000 0.000000 10.000000 
R_Mouth01 0.000000 0.000000 0.000000 0.000000 0.000000 0.000000 10.000000 
R_mouthFront 0.000000 0.000000 0.000000 0.000000 0.000000 0.000000 10.000000 
TopMouth 0.000000 0.000000 0.000000 0.000000 0.000000 0.000000 10.000000 
weapon_bone 0.000000 0.000000 0.000000 0.000000 0.000000 0.000000 10.000000 
#Beginning of Data. Separated by tabs
#Fr	Tx	Ty	Tz	Rx	Ry	Rz	SF
[Pinger_Root]
28 3499.999023 0.000000 0.000000 -0.000075 -0.000000 -0.000020 3499.999023
29 3629.628662 0.000000 0.000000 -0.000075 -0.000000 -0.000020 3629.628662
30 3759.258789 0.000000 0.000000 -0.000075 -0.000000 -0.000020 3759.258789
[Pelvis]
28 282.983093 -41.950336 5059.364258 47.388412 -74.257858 -71.353165 5067.445801
29 263.971436 -104.104858 5087.452148 49.607105 -74.968842 -72.587997 5095.359375
30 254.928650 -165.695236 5118.053711 51.115345 -75.887215 -73.464378 5127.077148
[L_Hip]
28 5.766392 125.831482 872.656799 -178.250168 -81.786369 87.376007 881.701050
29 5.766392 125.831482 872.656799 -178.250168 -81.786369 87.376007 881.701050
30 5.766392 125.831482 872.656799 -178.250168 -81.786369 87.376007 881.701050
[R_Hip]
28 5.765438 125.836372 -872.654907 -1.748770 81.786041 87.376961 881.699829
29 5.765438 125.836372 -872.654907 -1.748770 81.786041 87.376961 881.699829
30 5.765438 125.836372 -872.654907 -1.748770 81.786041 87.376961 881.699829
[Rear_Leg01]
28 -192.298416 -925.602966 -0.001907 -161.147827 -12.387485 -173.835464 945.367432
29 -192.298416 -925.602966 -0.001907 -159.740692 -13.961665 -176.843307 945.367432
30 -192.298416 -925.602966 -0.001907 -158.720612 -15.913998 -178.610199 945.367432
[Spine1]
28 290.604584 5.007505 0.000477 4.919520 -15.221855 42.323837 290.647736
29 290.604584 5.007505 0.000477 4.222056 -13.976415 42.488773 290.647736
30 290.604584 5.007505 0.000477 3.883044 -12.945585 42.330849 290.647736
[L_Leg01]
28 761.932007 -0.002384 -0.069261 99.156471 -10.653298 -76.165848 761.932068
29 761.932007 -0.002384 -0.069261 109.512253 -17.766640 -78.985901 761.932068
30 761.932007 -0.002384 -0.069261 122.215950 -24.125385 -84.673836 761.932068
[L_Leg02]
28 1441.140503 -0.000954 -0.000715 -1.343837 0.788776 -72.560028 1441.140503
29 1441.140503 -0.000954 -0.000715 -1.352507 0.775489 -81.558868 1441.140503
30 1441.140503 -0.000954 -0.000715 -1.319056 0.797602 -90.082680 1441.140503
[L_Leg03]
28 1686.963989 -0.000715 -0.000954 0.104703 -0.010510 82.331009 1686.963989
29 1686.963989 -0.000715 -0.000954 0.097466 -0.013034 84.751457 1686.963989
30 1686.963989 -0.000715 -0.000954 0.093804 -0.009789 84.858620 1686.963989
[L_Foot]
28 3041.570068 -30.715107 11.297464 -35.096367 10.267683 44.877831 3041.746094
29 3041.570068 -30.715107 11.297464 -43.063095 11.096829 34.815380 3041.746094
30 3041.570068 -30.715107 11.297464 -52.911884 10.986040 27.249962 3041.746094
[L_Toe1_01]
28 -188.216690 -224.732346 -21.137953 88.532990 -0.854599 -134.715683 293.899567
29 -188.216690 -224.732346 -21.137953 88.255409 0.151466 -124.236740 293.899567
30 -188.216690 -224.732346 -21.137953 88.115746 0.670999 -116.780991 293.899567
[L_Toe2_01]
28 200.746536 -219.926590 148.838394 -74.771240 -10.310542 -59.393002 332.896027
29 200.746536 -219.926590 148.838394 -74.854111 -10.230360 -59.089710 332.896027
30 200.746536 -219.926590 148.838394 -74.936523 -10.149740 -58.786598 332.896027
[L_Toe3_01]
28 188.832520 -219.859131 -191.078659 -109.673157 12.635106 -61.320202 347.140900
29 188.832520 -219.859131 -191.078659 -109.563683 12.539978 -61.004387 347.140900
30 188.832520 -219.859131 -191.078659 -109.454788 12.444260 -60.688869 347.140900
[planeAlignerLeft]
28 -85.496552 -811.634583 1.908023 0.000000 -90.000000 -90.001900 816.127441
29 -93.007614 -811.987183 3.822924 0.000000 -90.000000 -90.001900 817.305420
30 -95.700058 -814.586182 5.736664 0.000000 -90.000000 -90.001900 820.208496
[L_Toe1_02]
28 413.761139 0.000477 0.000000 0.001398 -24.193941 0.001398 413.761139
29 413.761139 0.000477 0.000000 0.001661 0.070760 0.001661 413.761139
30 413.761139 0.000477 0.000000 0.001661 0.068425 0.001661 413.761139
[L_Toe1_03]
28 464.317322 0.000358 -0.000089 0.002617 36.704929 0.002617 464.317322
29 464.317322 0.000358 -0.000089 0.001673 -0.448187 -0.003292 464.317322
30 464.317322 0.000358 -0.000089 0.001673 -0.448396 -0.003292 464.317322
[L_Toe2_02]
28 342.235809 -0.000477 0.000238 0.001185 -74.166359 0.001185 342.235809
29 342.235809 -0.000477 0.000238 0.001185 -74.022301 0.001185 342.235809
30 342.235809 -0.000477 0.000238 0.001186 -73.682083 0.001186 342.235809
[L_Toe2_03]
28 420.210846 -0.000715 0.000000 0.000000 89.494484 0.003502 420.210846
29 420.210846 -0.000715 0.000000 0.000000 89.674950 0.003494 420.210846
30 420.210846 -0.000715 0.000000 -0.058988 88.848862 -0.055491 420.210846
[L_Toe3_02]
28 329.270111 0.000954 0.000000 0.001180 -77.949615 0.001180 329.270111
29 329.270111 0.000954 0.000000 0.001180 -77.794640 0.001180 329.270111
30 329.270111 0.000954 0.000000 0.001180 -77.639648 0.001180 329.270111
[L_Toe3_03]
28 439.137451 -0.001907 0.000954 -179.981094 86.810219 -179.977600 439.137451
29 439.137451 -0.001907 0.000954 -179.974945 87.543221 -179.971451 439.137451
30 439.137451 -0.001907 0.000954 -179.963547 88.275688 -179.960052 439.137451
[planeLockWeightLeft]
28 843.750061 0.097961 0.076141 -0.011826 -0.004376 0.005620 843.750061
29 500.001556 0.098114 0.076141 -0.011826 -0.004376 0.005620 500.001556
30 156.251968 0.098267 0.076141 -0.011826 -0.004376 0.005620 156.252014
[R_Leg01]
28 761.455627 -0.001907 -0.000358 105.597252 10.987246 44.563068 761.455688
29 761.455627 -0.001907 -0.000358 110.046028 13.463373 47.092361 761.455688
30 761.455627 -0.001907 -0.000358 113.719574 16.282402 50.247940 761.455688
[R_Leg02]
28 1441.140625 0.000000 -0.000238 0.195838 -0.002786 -86.996696 1441.140625
29 1441.140625 0.000000 -0.000238 0.200189 0.007235 -82.774239 1441.140625
30 1441.140625 0.000000 -0.000238 0.208434 0.016455 -80.409264 1441.140625
[R_Leg03]
28 1686.963989 0.000954 0.001431 -0.081786 0.012748 88.262260 1686.963989
29 1686.963989 0.000954 0.001431 -0.081861 0.012253 87.568344 1686.963989
30 1686.963989 0.000954 0.001431 -0.078233 0.013166 88.795792 1686.963989
[R_Foot]
28 3041.560059 -30.531288 -11.204481 35.134045 -20.507481 58.407734 3041.734131
29 3041.560059 -30.531288 -11.204481 32.737144 -18.220768 58.222542 3041.734131
30 3041.560059 -30.531288 -11.204481 30.870066 -16.712997 58.404182 3041.734131
[planeAlignerRight]
28 -3.455773 -640.934814 9.032672 0.000000 -89.960434 -90.005180 641.007813
29 -64.586441 -571.839661 29.996523 0.000000 -89.960434 -90.005180 576.256714
30 -56.950726 -572.009033 29.554140 0.000000 -89.960434 -90.005180 575.596375
[R_Toe1_01]
28 -188.383347 -224.864899 21.052242 90.670982 1.551981 -163.225876 294.101532
29 -188.383347 -224.864899 21.052242 90.737015 0.416365 -165.912369 294.101532
30 -188.383347 -224.864899 21.052242 90.732735 0.447163 -166.264496 294.101532
[R_Toe2_01]
28 200.637817 -220.002121 -148.787384 -102.342255 11.745009 -46.300434 332.857574
29 200.637817 -220.002121 -148.787384 -100.845215 12.942595 -39.524837 332.857574
30 200.637817 -220.002121 -148.787384 -100.862923 12.695474 -39.758095 332.857574
[R_Toe3_01]
28 188.606735 -220.092957 191.126343 -73.496918 -15.614547 -48.515862 347.192566
29 188.606735 -220.092957 191.126343 -74.571350 -20.023174 -42.863052 347.192566
30 188.606735 -220.092957 191.126343 -74.579651 -19.761690 -42.926430 347.192566
[planeLockWeightRight]
28 999.999329 -0.000526 0.076017 -0.011823 -0.004379 -0.000027 999.999329
29 999.999329 -0.000484 0.076026 -0.011823 -0.004379 -0.000027 999.999329
30 999.999329 -0.000442 0.076035 -0.011823 -0.004379 -0.000027 999.999329
[R_Toe1_02]
28 413.762085 0.000477 -0.000119 0.001411 -22.583714 0.001411 413.762085
29 413.762085 0.000477 -0.000119 0.001403 -23.602476 0.001403 413.762085
30 413.762085 0.000477 -0.000119 0.001406 -23.163263 0.001406 413.762085
[R_Toe1_03]
28 464.317810 0.000000 0.001088 0.002603 80.123466 0.004359 464.317810
29 464.317810 0.000000 0.001088 0.009357 75.589226 0.009357 464.317810
30 464.317810 0.000000 0.001088 0.010237 76.833656 0.010237 464.317810
[R_Toe2_02]
28 342.234741 -0.000954 0.000238 -0.002338 -76.955666 -0.002338 342.234741
29 342.234741 -0.000954 0.000238 -0.002332 -79.795288 -0.002332 342.234741
30 342.234741 -0.000954 0.000238 -0.002333 -79.525085 -0.002333 342.234741
[R_Toe2_03]
28 420.210846 0.000715 -0.000268 -179.991730 79.890144 -179.995239 420.210846
29 420.210846 0.000715 -0.000268 -179.995590 64.573097 -179.999191 420.210846
30 420.210846 0.000715 -0.000268 -179.995499 65.611481 -179.999069 420.210846
[R_Toe3_02]
28 329.270355 -0.000477 -0.000954 0.001178 -80.486732 0.001178 329.270355
29 329.270355 -0.000477 -0.000954 0.001176 -82.985130 0.001176 329.270355
30 329.270355 -0.000477 -0.000954 0.001176 -82.698563 0.001176 329.270355
[R_Toe3_03]
28 439.137939 0.000238 0.001431 -179.996033 78.484520 -179.992523 439.137939
29 439.137939 0.000238 0.001431 -179.998978 66.307259 -179.995422 439.137939
30 439.137939 0.000238 0.001431 -179.998871 67.213348 -179.995316 439.137939
[Rear_Leg02]
28 1162.777710 -0.029802 0.005960 -7.649115 9.247097 -133.635300 1162.777710
29 1162.777710 -0.029802 0.005960 -6.647882 9.803502 -131.180618 1162.777710
30 1162.777710 -0.029802 0.005960 -5.490661 10.223300 -126.371750 1162.777710
[Rear_Leg03]
28 607.192505 -0.013351 -0.073195 0.010234 -0.005607 73.794792 607.192505
29 607.192505 -0.013351 -0.073195 0.010301 -0.005480 72.381622 607.192505
30 607.192505 -0.013351 -0.073195 0.010392 -0.005311 70.492134 607.192505
[Rear_Leg04]
28 995.874512 -0.020504 -0.011921 -0.043661 -0.016088 80.074318 995.874573
29 995.874512 -0.020504 -0.011921 -0.041540 -0.015602 76.191322 995.874573
30 995.874512 -0.020504 -0.011921 -0.040930 -0.017225 71.714241 995.874573
[Rear_Foot]
28 3096.176270 -0.067472 -0.041425 150.924454 64.934196 -45.526676 3096.176270
29 3096.176270 -0.067472 -0.041425 152.731079 63.833549 -42.619953 3096.176270
30 3096.176270 -0.067472 -0.041425 154.345154 62.695892 -39.900757 3096.176270
[planeAlignerCenter]
28 0.571289 48.139915 -809.265320 0.000009 0.000003 -179.999985 810.696045
29 0.565338 53.138981 -795.532410 0.000009 0.000003 -179.999985 797.305359
30 0.559387 58.138042 -781.799500 0.000009 0.000003 -179.999985 783.958435
[Rear_Toe1_01]
28 0.653352 83.966492 -371.173737 0.066921 28.133915 90.036812 380.553192
29 0.653352 83.966492 -371.173737 0.067660 27.445801 90.036232 380.553192
30 0.653352 83.966492 -371.173737 0.068406 26.757713 90.035645 380.553192
[Rear_Toe2_01]
28 178.200760 -294.826019 -362.060547 0.677846 53.328964 -70.598015 499.765686
29 178.200760 -294.826019 -362.060547 0.754336 52.670975 -70.444847 499.765686
30 178.200760 -294.826019 -362.060547 0.826825 52.012913 -70.295380 499.765686
[Rear_Toe3_01]
28 -153.359680 -308.780914 -362.060852 -0.917729 53.312679 -111.823540 499.952881
29 -153.359680 -308.780914 -362.060852 -1.012804 52.656696 -111.997353 499.952881
30 -153.359680 -308.780914 -362.060852 -1.103240 52.000553 -112.166794 499.952881
[planeLockWeightCenter]
28 999.999878 0.000223 0.076357 -0.011814 -0.004373 -0.000015 999.999878
29 999.999878 0.000219 0.076370 -0.011814 -0.004373 -0.000015 999.999878
30 999.999878 0.000214 0.076383 -0.011814 -0.004373 -0.000015 999.999878
[Rear_Toe1_02]
28 379.707825 0.194073 0.000477 -0.000767 -33.624729 0.000838 379.707855
29 379.707825 0.194073 0.000477 -0.000767 -33.624729 0.000838 379.707855
30 379.707825 0.194073 0.000477 -0.000767 -33.624729 0.000838 379.707855
[Rear_Toe1_03]
28 500.129700 0.165701 0.000119 -0.004935 69.022240 -0.001379 500.129761
29 500.129700 0.165701 0.000119 -0.004928 68.974197 -0.001372 500.129761
30 500.129700 0.165701 0.000119 -0.002680 69.388405 0.000164 500.129761
[Rear_Toe2_02]
28 340.494507 0.000238 -0.000954 0.001179 -79.208145 0.001179 340.494507
29 340.494507 0.000238 -0.000954 0.001179 -80.125381 0.001179 340.494507
30 340.494507 0.000238 -0.000954 0.001178 -81.042572 0.001178 340.494507
[Rear_Toe2_03]
28 433.103577 0.000000 0.000238 0.033344 85.962700 0.033344 433.103546
29 433.103577 0.000000 0.000238 0.065500 87.944336 0.065500 433.103546
30 433.103577 0.000000 0.000238 0.000000 89.928673 0.000002 433.103546
[Rear_Toe3_02]
28 340.494141 -0.000358 -0.000477 0.001179 -79.119652 0.001179 340.494171
29 340.494141 -0.000358 -0.000477 0.001179 -80.034645 0.001179 340.494171
30 340.494141 -0.000358 -0.000477 0.001178 -80.949692 0.001178 340.494171
[Rear_Toe3_03]
28 433.103577 0.001431 -0.000238 -0.017319 85.765480 -0.013817 433.103546
29 433.103577 0.001431 -0.000238 -0.030872 87.735748 -0.027371 433.103546
30 433.103577 0.001431 -0.000238 0.000000 89.705917 0.003498 433.103546
[Back_Bone]
28 1312.175781 -701.934692 0.000954 2.671739 -1.890441 -84.238838 1488.125488
29 1312.175781 -701.934692 0.000954 2.767510 -1.075504 -84.529999 1488.125488
30 1312.175781 -701.934692 0.000954 2.859121 -0.260090 -84.819740 1488.125488
[Head]
28 1406.159424 809.709290 0.001431 10.604197 -7.914143 1.779615 1622.625488
29 1406.159424 809.709290 0.001431 10.926576 -7.859576 1.293773 1622.625488
30 1406.159424 809.709290 0.001431 11.248437 -7.802301 0.808303 1622.625488
[Motor_Bone]
28 1158.364380 -417.834747 0.000477 -1.960023 -0.663910 -106.649643 1231.419434
29 1158.364380 -417.834747 0.000477 -1.845118 -0.485018 -106.470413 1231.419434
30 1158.364380 -417.834747 0.000477 -1.729658 -0.306490 -106.290817 1231.419434
[Ping_Mechanism]
28 1167.591187 -383.958618 37.483055 0.000103 -0.000053 82.120995 1229.674072
29 1168.721924 -386.252686 33.480309 0.000103 -0.000053 82.120995 1231.350098
30 1169.852661 -388.546722 29.477560 0.000103 -0.000053 82.120995 1233.041992
[BN_LookIK]
28 193.241119 1380.371704 -0.002861 0.000000 89.965736 -31.038179 1393.832153
29 193.241119 1380.371704 -0.002861 0.000000 89.965736 -31.038179 1393.832153
30 193.241119 1380.371704 -0.002861 0.000000 89.965736 -31.038179 1393.832153
[bottomMouth]
28 -435.092926 615.759399 -0.000954 -0.000022 0.000016 73.527184 753.966492
29 -435.092926 615.759399 -0.000954 -0.000022 0.000016 73.527184 753.966492
30 -435.092926 615.759399 -0.000954 -0.000022 0.000016 73.527184 753.966492
[L_Mouth01]
28 554.440979 7.658243 838.222046 150.204178 23.759130 109.605339 1005.027161
29 554.440979 7.658243 838.222046 150.204178 23.759130 109.605339 1005.027161
30 554.440979 7.658243 838.222046 150.204178 23.759130 109.605339 1005.027161
[L_mouthFront]
28 551.629089 934.514771 339.150421 0.000081 2.804060 79.119301 1136.941284
29 551.629089 934.514771 339.150421 0.000081 2.804060 79.119301 1136.941284
30 551.629089 934.514771 339.150421 0.000081 2.804060 79.119301 1136.941284
[mouthGun]
28 55.332661 1627.420898 0.000000 0.000023 0.000009 -11.038128 1628.361328
29 55.332661 1627.420898 0.000000 0.000023 0.000009 -11.038128 1628.361328
30 55.332661 1627.420898 0.000000 0.000023 0.000009 -11.038128 1628.361328
[R_Mouth01]
28 554.442383 7.659197 -838.223938 29.795891 -23.759109 109.605331 1005.029541
29 554.442383 7.659197 -838.223938 29.795891 -23.759109 109.605331 1005.029541
30 554.442383 7.659197 -838.223938 29.795891 -23.759109 109.605331 1005.029541
[R_mouthFront]
28 551.629089 934.514282 -339.151367 0.000029 -2.803930 79.119133 1136.941162
29 551.629089 934.514282 -339.151367 0.000029 -2.803930 79.119133 1136.941162
30 551.629089 934.514282 -339.151367 0.000029 -2.803930 79.119133 1136.941162
[TopMouth]
28 461.269867 -56.106091 -0.008583 -0.000059 -0.000268 92.025169 464.669525
29 461.269867 -56.106091 -0.008583 -0.000059 -0.000268 92.025169 464.669525
30 461.269867 -56.106091 -0.008583 -0.000059 -0.000268 92.025169 464.669525
[weapon_bone]
28 -987.239868 1448.372803 0.001431 0.000000 89.965736 -31.038221 1752.833740
29 -987.239868 1448.372803 0.001431 0.000000 89.965736 -31.038221 1752.833740
30 -987.239868 1448.372803 0.001431 0.000000 89.965736 -31.038221 1752.833740
